<?xml version="1.0" encoding="utf-8"?>
<!-- Generator: Adobe Illustrator 27.6.1, SVG Export Plug-In . SVG Version: 6.00 Build 0)  -->
<svg version="1.1" id="Layer_1" xmlns="http://www.w3.org/2000/svg" xmlns:xlink="http://www.w3.org/1999/xlink" x="0px" y="0px"
	 viewBox="0 0 63.76 63.88" style="enable-background:new 0 0 63.76 63.88;" xml:space="preserve">
<style type="text/css">
	.st0{fill:#F9AE00;}
</style>
<g>
	<path class="st0" d="M7.29,36.59c-3.31-0.66-6.52,1.49-7.18,4.79c-0.66,3.31,1.49,6.52,4.79,7.17c3.31,0.66,6.52-1.49,7.18-4.79
		C12.75,40.46,10.6,37.24,7.29,36.59z"/>
	<path class="st0" d="M43.21,43.73c-5.51-1.1-10.86,2.48-11.96,7.99c-1.1,5.51,2.48,10.86,7.99,11.96
		c5.51,1.1,10.86-2.48,11.96-7.99C52.29,50.18,48.72,44.83,43.21,43.73z"/>
	<path class="st0" d="M53.94,0.24C47.33-1.08,40.9,3.21,39.58,9.82L38.4,15.8c-0.87,4.41-5.17,7.28-9.58,6.41l-3.99-0.81
		c-4.39-0.88-7.26-5.15-6.39-9.56l0.2-1c0.75-3.84-1.75-7.61-5.59-8.36C9.18,1.7,5.44,4.21,4.67,8.07
		c-0.77,3.84,1.75,7.59,5.59,8.36l1,0.2c4.41,0.87,7.28,5.17,6.39,9.56l-0.39,1.99c-0.87,4.41,1.99,8.71,6.39,9.58
		c4.41,0.88,8.71-1.99,9.58-6.41l0.39-1.99c0.87-4.39,5.17-7.26,9.56-6.39l6,1.2c6.61,1.3,13.04-2.99,14.34-9.6
		C64.84,7.97,60.55,1.54,53.94,0.24z"/>
</g>
</svg>
